<?xml version="1.0" encoding="UTF-8"?>
<svg width="38px" height="12px" viewBox="0 0 38 12" version="1.1" xmlns="http://www.w3.org/2000/svg" xmlns:xlink="http://www.w3.org/1999/xlink">
    <!-- Generator: sketchtool 52.3 (67297) - http://www.bohemiancoding.com/sketch -->
    <title>E0BDF005-B37E-4CCB-9EE6-653202C231F0</title>
    <desc>Created with sketchtool.</desc>
    <g id="Page-1" stroke="none" stroke-width="1" fill="none" fill-rule="evenodd">
        <g id="Visitor_Homepage" transform="translate(-1237.000000, -1564.000000)" fill="#666666" fill-rule="nonzero">
            <g id="Content" transform="translate(0.000000, 70.000000)">
                <g id="Top-of-This-Week" transform="translate(135.000000, 970.000000)">
                    <g id="arrow_icon" transform="translate(1102.000000, 524.000000)">
                        <path d="M24.8167921,-7.54733219 L19.4598463,-12.8141136 C19.3495563,-12.9225473 19.1762433,-13 19.0029304,-13 C18.8296174,-13 18.6563045,-12.9225473 18.5460144,-12.8141136 L13.1890687,-7.54733219 C12.9369771,-7.29948365 12.9369771,-6.89672978 13.1890687,-6.64888124 C13.3151145,-6.52495697 13.4726717,-6.46299484 13.6459846,-6.46299484 C13.8192976,-6.46299484 13.9768548,-6.52495697 14.1029006,-6.64888124 L18.3569458,-10.8313253 L18.3569458,24.3648881 C18.3569458,24.7211704 18.6405488,25 19.0029304,25 C19.365312,25 19.648915,24.7211704 19.648915,24.3648881 L19.648915,-10.8313253 L23.9029602,-6.64888124 C24.1550517,-6.4010327 24.5647005,-6.4010327 24.8167921,-6.64888124 C25.0688837,-6.89672978 25.0531279,-7.29948365 24.8167921,-7.54733219 Z" transform="translate(19.000000, 6.000000) rotate(90.000000) translate(-19.000000, -6.000000) "></path>
                    </g>
                </g>
            </g>
        </g>
    </g>
</svg>