<?xml version="1.0" encoding="UTF-8"?>
<svg width="18px" height="12px" viewBox="0 0 18 12" version="1.1" xmlns="http://www.w3.org/2000/svg" xmlns:xlink="http://www.w3.org/1999/xlink">
    <!-- Generator: sketchtool 52.3 (67297) - http://www.bohemiancoding.com/sketch -->
    <title>B202ECF9-CEDC-4B70-A0FE-81767509CBB1</title>
    <desc>Created with sketchtool.</desc>
    <g id="Page-1" stroke="none" stroke-width="1" fill="none" fill-rule="evenodd">
        <g id="Visitor_Homepage" transform="translate(-1239.000000, -322.000000)" fill="#FFFFFF" fill-rule="nonzero">
            <g id="Content" transform="translate(0.000000, 70.000000)">
                <g id="Search" transform="translate(135.000000, 228.000000)">
                    <g id="Find-Your-Adventure-button" transform="translate(900.000000, 0.000000)">
                        <g id="arrow_icon" transform="translate(204.000000, 24.000000)">
                            <path d="M14.8167921,2.45266781 L9.45984635,-2.8141136 C9.34955629,-2.92254733 9.17624334,-3 9.00293039,-3 C8.82961744,-3 8.65630448,-2.92254733 8.54601443,-2.8141136 L3.18906867,2.45266781 C2.93697711,2.70051635 2.93697711,3.10327022 3.18906867,3.35111876 C3.31511446,3.47504303 3.47267168,3.53700516 3.64598463,3.53700516 C3.81929759,3.53700516 3.97685481,3.47504303 4.1029006,3.35111876 L8.35694575,-0.831325301 L8.35694575,14.3648881 C8.35694575,14.7211704 8.64054876,15 9.00293039,15 C9.36531201,15 9.64891502,14.7211704 9.64891502,14.3648881 L9.64891502,-0.831325301 L13.9029602,3.35111876 C14.1550517,3.5989673 14.5647005,3.5989673 14.8167921,3.35111876 C15.0688837,3.10327022 15.0531279,2.70051635 14.8167921,2.45266781 Z" transform="translate(9.000000, 6.000000) rotate(90.000000) translate(-9.000000, -6.000000) "></path>
                        </g>
                    </g>
                </g>
            </g>
        </g>
    </g>
</svg>