<?xml version="1.0" encoding="UTF-8"?>
<svg width="16px" height="15px" viewBox="0 0 16 15" version="1.1" xmlns="http://www.w3.org/2000/svg" xmlns:xlink="http://www.w3.org/1999/xlink">
    <!-- Generator: sketchtool 52.3 (67297) - http://www.bohemiancoding.com/sketch -->
    <title>807AFBBC-BF2A-43A9-BC61-649BDF43B6EF</title>
    <desc>Created with sketchtool.</desc>
    <g id="Page-1" stroke="none" stroke-width="1" fill="none" fill-rule="evenodd">
        <g id="Visitor_Homepage" transform="translate(-535.000000, -321.000000)" fill="#999999" fill-rule="nonzero">
            <g id="Content" transform="translate(0.000000, 70.000000)">
                <g id="Search" transform="translate(135.000000, 228.000000)">
                    <g id="When" transform="translate(400.000000, 20.000000)">
                        <g id="calendar_icon" transform="translate(0.000000, 3.000000)">
                            <path d="M0.615384615,14.8761468 L15.3709402,14.8761468 C15.6854701,14.8761468 15.9316239,14.6284404 15.9316239,14.3119266 L15.9316239,1.72018349 C15.9316239,1.40366972 15.6854701,1.1559633 15.3709402,1.1559633 L12.5948718,1.1559633 L12.5948718,0.674311927 C12.5948718,0.357798165 12.3487179,0.110091743 12.034188,0.110091743 C11.7196581,0.110091743 11.4735043,0.357798165 11.4735043,0.674311927 L11.4735043,1.1559633 L4.60854701,1.1559633 L4.60854701,0.674311927 C4.60854701,0.357798165 4.36239316,0.110091743 4.04786325,0.110091743 C3.73333333,0.110091743 3.48717949,0.357798165 3.48717949,0.674311927 L3.48717949,1.1559633 L0.615384615,1.1559633 C0.300854701,1.1559633 0.0547008547,1.40366972 0.0547008547,1.72018349 L0.0547008547,14.3256881 C0.0547008547,14.6284404 0.314529915,14.8761468 0.615384615,14.8761468 Z M1.17606838,2.28440367 L3.48717949,2.28440367 L3.48717949,2.58715596 C3.48717949,2.90366972 3.73333333,3.15137615 4.04786325,3.15137615 C4.36239316,3.15137615 4.60854701,2.90366972 4.60854701,2.58715596 L4.60854701,2.28440367 L11.4735043,2.28440367 L11.4735043,2.58715596 C11.4735043,2.90366972 11.7196581,3.15137615 12.034188,3.15137615 C12.3487179,3.15137615 12.5948718,2.90366972 12.5948718,2.58715596 L12.5948718,2.28440367 L14.8239316,2.28440367 L14.8239316,3.74311927 L1.17606838,3.74311927 L1.17606838,2.28440367 Z M1.17606838,4.87155963 L14.8102564,4.87155963 L14.8102564,13.7614679 L1.17606838,13.7614679 L1.17606838,4.87155963 Z" id="Shape"></path>
                            <path d="M12.034188,7.4587156 L3.96581197,7.4587156 C3.65128205,7.4587156 3.40512821,7.70642202 3.40512821,8.02293578 C3.40512821,8.33944954 3.65128205,8.58715596 3.96581197,8.58715596 L12.034188,8.58715596 C12.3487179,8.58715596 12.5948718,8.33944954 12.5948718,8.02293578 C12.5948718,7.70642202 12.3487179,7.4587156 12.034188,7.4587156 Z" id="Shape"></path>
                            <path d="M8,10.1834862 L3.96581197,10.1834862 C3.65128205,10.1834862 3.40512821,10.4311927 3.40512821,10.7477064 C3.40512821,11.0642202 3.65128205,11.3119266 3.96581197,11.3119266 L8,11.3119266 C8.31452991,11.3119266 8.56068376,11.0642202 8.56068376,10.7477064 C8.56068376,10.4311927 8.31452991,10.1834862 8,10.1834862 Z" id="Shape"></path>
                        </g>
                    </g>
                </g>
            </g>
        </g>
    </g>
</svg>