<?xml version="1.0" encoding="UTF-8"?>
<svg width="30px" height="30px" viewBox="0 0 30 30" version="1.1" xmlns="http://www.w3.org/2000/svg" xmlns:xlink="http://www.w3.org/1999/xlink">
    <!-- Generator: sketchtool 52.4 (67378) - http://www.bohemiancoding.com/sketch -->
    <title>43F4264E-B2C9-4211-A241-E3C6EC751073</title>
    <desc>Created with sketchtool.</desc>
    <g id="Page-1" stroke="none" stroke-width="1" fill="none" fill-rule="evenodd">
        <g id="Visitor_Homepage" transform="translate(-1185.000000, -3193.000000)">
            <g id="Footer" transform="translate(135.000000, 3193.000000)">
                <g id="Social-Icons" transform="translate(1050.000000, 0.000000)">
                    <g id="facebook_icon">
                        <circle id="Oval-3" stroke="#DDDDDD" fill="#FFFFFF" cx="15" cy="15" r="14.5"></circle>
                        <path d="M12.2235065,15.4564 L13.7425014,15.4564 L13.7425014,21.7741935 C13.7425014,21.898929 13.8425429,22 13.9660079,22 L16.5415179,22 C16.6649829,22 16.7650244,21.898929 16.7650244,21.7741935 L16.7650244,15.4861613 L18.511236,15.4861613 C18.6247773,15.4861613 18.720304,15.4000839 18.7332673,15.2861419 L18.9984802,12.9602452 C19.0057665,12.8962516 18.9856956,12.8321677 18.9433188,12.7841613 C18.9008972,12.7361097 18.8401929,12.7086065 18.7764935,12.7086065 L16.7651138,12.7086065 L16.7651138,11.2506194 C16.7651138,10.8111097 16.9993486,10.5882387 17.4613813,10.5882387 C17.5272263,10.5882387 18.7764935,10.5882387 18.7764935,10.5882387 C18.8999585,10.5882387 19,10.4871226 19,10.3624323 L19,8.22747742 C19,8.10274194 18.8999585,8.00167097 18.7764935,8.00167097 L16.9640793,8.00167097 C16.9512947,8.00103871 16.9229094,8 16.881069,8 C16.5665954,8 15.4735145,8.06236774 14.6100642,8.86488387 C13.653367,9.7542 13.7863533,10.8190129 13.818136,11.0036323 L13.818136,12.7085613 L12.2235065,12.7085613 C12.1000415,12.7085613 12,12.8096323 12,12.9343677 L12,15.2305484 C12,15.3552839 12.1000415,15.4564 12.2235065,15.4564 Z" id="facebook" fill="#999999" fill-rule="nonzero"></path>
                    </g>
                </g>
            </g>
        </g>
    </g>
</svg>