<?xml version="1.0" encoding="UTF-8"?>
<svg width="30px" height="30px" viewBox="0 0 30 30" version="1.1" xmlns="http://www.w3.org/2000/svg" xmlns:xlink="http://www.w3.org/1999/xlink">
    <!-- Generator: sketchtool 52.3 (67297) - http://www.bohemiancoding.com/sketch -->
    <title>2B30724F-275C-4445-A1A5-D25AC2031279</title>
    <desc>Created with sketchtool.</desc>
    <g id="Page-1" stroke="none" stroke-width="1" fill="none" fill-rule="evenodd">
        <g id="Visitor_Homepage" transform="translate(-1275.000000, -3193.000000)">
            <g id="Footer" transform="translate(135.000000, 3193.000000)">
                <g id="Social-Icons" transform="translate(1050.000000, 0.000000)">
                    <g id="Instagram_icon" transform="translate(90.000000, 0.000000)">
                        <circle id="Oval-3" stroke="#DDDDDD" fill="#FFFFFF" cx="15" cy="15" r="14.5"></circle>
                        <g id="Inst" transform="translate(8.000000, 8.000000)" fill="#999999">
                            <path d="M3,0 L11,0 C12.6568542,-3.04359188e-16 14,1.34314575 14,3 L14,11 C14,12.6568542 12.6568542,14 11,14 L3,14 C1.34314575,14 2.02906125e-16,12.6568542 0,11 L0,3 C-2.02906125e-16,1.34314575 1.34314575,3.04359188e-16 3,0 Z M11,4 C11.5522847,4 12,3.55228475 12,3 C12,2.44771525 11.5522847,2 11,2 C10.4477153,2 10,2.44771525 10,3 C10,3.55228475 10.4477153,4 11,4 Z M7,11 C9.209139,11 11,9.209139 11,7 C11,4.790861 9.209139,3 7,3 C4.790861,3 3,4.790861 3,7 C3,9.209139 4.790861,11 7,11 Z" id="Combined-Shape"></path>
                            <path d="M7,9 C8.1045695,9 9,8.1045695 9,7 C9,5.8954305 8.1045695,5 7,5 C5.8954305,5 5,5.8954305 5,7 C5,8.1045695 5.8954305,9 7,9 Z" id="Oval"></path>
                        </g>
                    </g>
                </g>
            </g>
        </g>
    </g>
</svg>