<?xml version="1.0" encoding="UTF-8"?>
<svg width="14px" height="18px" viewBox="0 0 14 18" version="1.1" xmlns="http://www.w3.org/2000/svg" xmlns:xlink="http://www.w3.org/1999/xlink">
    <!-- Generator: sketchtool 52.4 (67378) - http://www.bohemiancoding.com/sketch -->
    <title>4A9D2E7C-9571-452B-93CB-6B8129276C83</title>
    <desc>Created with sketchtool.</desc>
    <g id="Page-1" stroke="none" stroke-width="1" fill="none" fill-rule="evenodd">
        <g id="Visitor_Homepage" transform="translate(-155.000000, -319.000000)" fill="#999999" fill-rule="nonzero">
            <g id="Content" transform="translate(0.000000, 70.000000)">
                <g id="Search" transform="translate(135.000000, 228.000000)">
                    <g id="Location" transform="translate(20.000000, 10.000000)">
                        <g id="location_icon" transform="translate(0.000000, 11.000000)">
                            <path d="M7,0.0615384615 C3.16129032,0.0615384615 0.0301075269,3.26153846 0.0301075269,7.2 C0.0301075269,7.67692308 0.0752688172,8.15384615 0.165591398,8.61538462 C0.165591398,8.64615385 0.180645161,8.67692308 0.180645161,8.72307692 C0.948387097,12.2461538 6.35268817,17.5384615 6.57849462,17.7538462 C6.69892473,17.8769231 6.84946237,17.9230769 7,17.9230769 C7.15053763,17.9230769 7.30107527,17.8615385 7.42150538,17.7538462 C7.64731183,17.5230769 13.0215054,12.2461538 13.7892473,8.8 C13.7892473,8.76923077 13.8043011,8.73846154 13.8043011,8.70769231 C13.9096774,8.21538462 13.9548387,7.70769231 13.9548387,7.2 C13.9698925,3.26153846 10.8387097,0.0615384615 7,0.0615384615 Z M12.6,8.47692308 C12.6,8.50769231 12.6,8.49230769 12.6,8.52307692 C12.027957,11.0769231 8.27956989,15.1076923 7,16.4153846 C5.72043011,15.1076923 1.95698925,11.0769231 1.38494624,8.46153846 C1.38494624,8.43076923 1.38494624,8.41538462 1.36989247,8.38461538 C1.29462366,7.98461538 1.24946237,7.58461538 1.24946237,7.18461538 C1.24946237,3.95384615 3.82365591,1.30769231 6.98494624,1.30769231 C10.1462366,1.30769231 12.7354839,3.93846154 12.7354839,7.18461538 C12.7354839,7.63076923 12.6903226,8.06153846 12.6,8.47692308 Z" id="Shape"></path>
                            <path d="M7,4.07692308 C5.70537634,4.07692308 4.66666667,5.15384615 4.66666667,6.46153846 C4.66666667,7.76923077 5.72043011,8.84615385 7,8.84615385 C8.27956989,8.84615385 9.33333333,7.78461538 9.33333333,6.46153846 C9.33333333,5.13846154 8.29462366,4.07692308 7,4.07692308 Z M7,7.6 C6.3827957,7.6 5.88602151,7.09230769 5.88602151,6.46153846 C5.88602151,5.83076923 6.3827957,5.32307692 7,5.32307692 C7.6172043,5.32307692 8.11397849,5.83076923 8.11397849,6.46153846 C8.11397849,7.09230769 7.6172043,7.6 7,7.6 Z" id="Shape"></path>
                        </g>
                    </g>
                </g>
            </g>
        </g>
    </g>
</svg>