<svg width="512" height="512" xmlns="http://www.w3.org/2000/svg">

 <g>
  <title>background</title>
  <rect fill="none" id="canvas_background" height="402" width="582" y="-1" x="-1"/>
 </g>
 <g>
  <title>Layer 1</title>
  <path id="svg_2" fill="#ffffff" d="m256.1,512c-7.7,0 -14.9,-3.8 -19.2,-10l-130.6,-187.6c-28.2,-33.8 -43.7,-77 -43.7,-121.8c0,-106.2 86.8,-192.6 193.4,-192.6c106.6,0 193.3,86.4 193.3,192.6c0,32.6 -8.4,64.9 -24.3,93.5c-0.6,1.5 -1.4,2.9 -2.3,4.3c-5.2,8.4 -10.1,15.4 -15.3,21.9l-132,189.6c-4.4,6.3 -11.6,10.1 -19.3,10.1zm-0.1,-490.9c-95,0 -172.3,76.9 -172.3,171.5c0,40 13.9,78.5 39,108.6c0.2,0.2 0.4,0.5 0.6,0.7l130.9,188c0.4,0.6 1.2,1 1.9,1c0.8,0 1.5,-0.4 2,-1l132.3,-190c0.1,-0.2 0.3,-0.4 0.4,-0.6c4.8,-6 9.3,-12.4 14.2,-20.3c0.1,-0.2 0.2,-0.4 0.3,-0.5c0.1,-0.1 0.1,-0.2 0.2,-0.3c0.2,-0.6 0.5,-1.2 0.8,-1.8c14.4,-25.6 22,-54.5 22,-83.8c0,-94.6 -77.3,-171.5 -172.3,-171.5z"/>
  <path id="svg_3" fill="#ffffff" d="m252.8,300.6c-59.8,0 -108.4,-48.5 -108.4,-108c0,-59.6 48.6,-108 108.4,-108c59.8,0 108.4,48.5 108.4,108c0,59.5 -48.6,108 -108.4,108zm0,-194.9c-48.2,0 -87.3,39 -87.3,86.9c0,47.9 39.2,86.9 87.3,86.9c48.2,0 87.3,-39 87.3,-86.9c0,-47.9 -39.1,-86.9 -87.3,-86.9z"/>
 </g>
</svg>