<?xml version="1.0" encoding="UTF-8" standalone="no"?>
<svg width="48px" height="41px" viewBox="0 0 48 41" version="1.1" xmlns="http://www.w3.org/2000/svg" xmlns:xlink="http://www.w3.org/1999/xlink">
    <!-- Generator: sketchtool 50.2 (55047) - http://www.bohemiancoding.com/sketch -->
    <title>77BBB857-C4D3-433C-B57E-7944E05CC8C1</title>
    <desc>Created with sketchtool.</desc>
    <defs>
        <polygon id="path-1" points="0.0181324138 0.0810877615 31.0978841 0.0810877615 31.0978841 33.4491948 0.0181324138 33.4491948"></polygon>
        <polygon id="path-3" points="0 0.0259564433 47.9911366 0.0259564433 47.9911366 16.3847432 0 16.3847432"></polygon>
    </defs>
    <g id="Page-1" stroke="none" stroke-width="1" fill="none" fill-rule="evenodd">
        <g id="Visitor_Homepage" transform="translate(-135.000000, -14.000000)">
            <g id="Header">
                <g id="Logo" transform="translate(135.000000, 14.000000)">
                    <g id="Group-3" transform="translate(8.441379, 0.002508)">
                        <mask id="mask-2" fill="white">
                            <use xlink:href="#path-1"></use>
                        </mask>
                        <g id="Clip-2"></g>
                        <path d="M27.0794566,33.4491948 L20.1649738,21.5829623 L17.3950428,19.9531819 L14.2113186,11.907186 L0.586270345,32.1624909 C0.392863448,32.1176 0.202932414,32.0716224 0.0181324138,32.0251433 L15.3061324,0.081079402 L31.0978841,33.2886076 C29.7209462,33.3514716 28.37976,33.4056415 27.0794566,33.4491948" id="Fill-1" fill="#1F1B47" mask="url(#mask-2)"></path>
                    </g>
                    <polygon id="Fill-4" fill="#C5C5C5" points="22.1478869 15.0692409 24.57528 21.1267475 27.5737903 22.5693573 33.4710041 33.5586717 27.1926869 25.3573552 23.1471972 24.8770983"></polygon>
                    <g id="Group-8" transform="translate(0.000000, 24.579623)">
                        <mask id="mask-4" fill="white">
                            <use xlink:href="#path-3"></use>
                        </mask>
                        <g id="Clip-7"></g>
                        <path d="M3.26448828,8.64709021 C6.37513655,10.3686586 10.858171,11.4088391 15.945509,11.9740291 L16.2321848,13.4724808 C10.8080193,12.6642782 6.13687448,11.1751893 3.26448828,8.64709021 Z M42.8507503,9.83381378 C43.2623917,10.4395477 43.6969572,11.0455324 44.1534538,11.6507648 C41.8976193,11.8735472 39.4817297,12.0706657 36.9822538,12.2218902 L37.4404883,14.0497922 C40.3214814,13.8906261 43.0723779,13.6690141 45.5603503,13.4305994 C46.3189986,14.3475599 47.1294538,15.2639352 47.9911366,16.1797253 C6.52716414,17.5373183 -8.06839448,12.1525894 4.20446069,0.0259564433 C-3.26136,8.38242645 9.62051586,11.65135 42.8507503,9.83381378 Z M22.8921848,12.4594689 C25.2971503,12.542145 27.7539228,12.5502538 30.1980331,12.5002636 L30.6452607,14.2852811 C28.1620055,14.3156263 25.6603779,14.2790114 23.215109,14.1491874 L22.8921848,12.4594689 Z" id="Fill-6" fill="#1E1C44" mask="url(#mask-4)"></path>
                    </g>
                </g>
            </g>
        </g>
    </g>
</svg>