<?xml version="1.0" encoding="UTF-8"?>
<svg width="46px" height="44px" viewBox="0 0 46 44" version="1.1" xmlns="http://www.w3.org/2000/svg" xmlns:xlink="http://www.w3.org/1999/xlink">
    <!-- Generator: sketchtool 52.3 (67297) - http://www.bohemiancoding.com/sketch -->
    <title>78264325-52DF-44B9-AC6B-8D7DC4BE5A2D</title>
    <desc>Created with sketchtool.</desc>
    <defs>
        <filter x="-8.0%" y="-6.3%" width="115.9%" height="112.6%" filterUnits="objectBoundingBox" id="filter-1">
            <feOffset dx="0" dy="5" in="SourceAlpha" result="shadowOffsetOuter1"></feOffset>
            <feGaussianBlur stdDeviation="5" in="shadowOffsetOuter1" result="shadowBlurOuter1"></feGaussianBlur>
            <feColorMatrix values="0 0 0 0 0   0 0 0 0 0   0 0 0 0 0  0 0 0 0.05 0" type="matrix" in="shadowBlurOuter1" result="shadowMatrixOuter1"></feColorMatrix>
            <feMerge>
                <feMergeNode in="shadowMatrixOuter1"></feMergeNode>
                <feMergeNode in="SourceGraphic"></feMergeNode>
            </feMerge>
        </filter>
        <path d="M23.8252005,5.55822907 C23.1417594,2.20307988 20.6979398,0.0404234841 17.5499687,0.0404234841 C15.7895901,0.0404234841 13.8842392,0.747834456 12.020309,2.08180943 C10.1356684,0.707410972 8.23031753,0 6.44922864,0 C3.30125758,0 0.836727606,2.18286814 0.173996856,5.57844081 C-0.820099269,10.6111646 2.36929246,17.3012512 11.709654,20.9393648 C11.8132056,20.9797883 11.9167573,21 12.020309,21 C12.1238607,21 12.2274124,20.9797883 12.330964,20.9393648 C21.6506152,17.2204042 24.8192966,10.5505294 23.8252005,5.55822907 Z M12.020309,19.2820019 C3.81901598,15.9672762 0.981699957,10.186718 1.83082373,5.88161694 C2.32787179,3.3147257 4.15038135,1.63715111 6.44922864,1.63715111 C8.00250384,1.63715111 9.74217206,2.36477382 11.4818403,3.75938402 C11.7924953,4.00192493 12.2274124,4.00192493 12.5380674,3.75938402 C14.2777356,2.40519731 15.9966935,1.69778633 17.5499687,1.69778633 C19.848816,1.69778633 21.6506152,3.33493744 22.1683736,5.88161694 C23.0174974,10.1462945 20.2008917,15.906641 12.020309,19.2820019 Z" id="path-2"></path>
        <filter x="-50.0%" y="-42.9%" width="200.0%" height="214.0%" filterUnits="objectBoundingBox" id="filter-3">
            <feOffset dx="0" dy="3" in="SourceAlpha" result="shadowOffsetOuter1"></feOffset>
            <feGaussianBlur stdDeviation="3.5" in="shadowOffsetOuter1" result="shadowBlurOuter1"></feGaussianBlur>
            <feColorMatrix values="0 0 0 0 0   0 0 0 0 0   0 0 0 0 0  0 0 0 0.15 0" type="matrix" in="shadowBlurOuter1"></feColorMatrix>
        </filter>
    </defs>
    <g id="Page-1" stroke="none" stroke-width="1" fill="none" fill-rule="evenodd">
        <g id="Visitor_Homepage" transform="translate(-430.000000, -531.000000)" fill-rule="nonzero">
            <g id="Content" transform="translate(0.000000, 70.000000)">
                <g id="Top-3" transform="translate(135.000000, 420.000000)">
                    <g id="card-1" filter="url(#filter-1)">
                        <g id="save_icon" transform="translate(306.000000, 46.000000)">
                            <g>
                                <use fill="black" fill-opacity="1" filter="url(#filter-3)" xlink:href="#path-2"></use>
                                <use fill="#FFFFFF" xlink:href="#path-2"></use>
                            </g>
                        </g>
                    </g>
                </g>
            </g>
        </g>
    </g>
</svg>