<?xml version="1.0" encoding="UTF-8"?>
<svg width="30px" height="31px" viewBox="0 0 30 31" version="1.1" xmlns="http://www.w3.org/2000/svg" xmlns:xlink="http://www.w3.org/1999/xlink">
    <!-- Generator: sketchtool 52.4 (67378) - http://www.bohemiancoding.com/sketch -->
    <title>8CBE7273-B54C-41BE-89E5-8C21D35943FA</title>
    <desc>Created with sketchtool.</desc>
    <defs>
        <filter x="-10.9%" y="-10.7%" width="121.9%" height="121.5%" filterUnits="objectBoundingBox" id="filter-1">
            <feOffset dx="0" dy="5" in="SourceAlpha" result="shadowOffsetOuter1"></feOffset>
            <feGaussianBlur stdDeviation="5" in="shadowOffsetOuter1" result="shadowBlurOuter1"></feGaussianBlur>
            <feColorMatrix values="0 0 0 0 0   0 0 0 0 0   0 0 0 0 0  0 0 0 0.05 0" type="matrix" in="shadowBlurOuter1" result="shadowMatrixOuter1"></feColorMatrix>
            <feMerge>
                <feMergeNode in="shadowMatrixOuter1"></feMergeNode>
                <feMergeNode in="SourceGraphic"></feMergeNode>
            </feMerge>
        </filter>
    </defs>
    <g id="Page-1" stroke="none" stroke-width="1" fill="none" fill-rule="evenodd">
        <g id="Visitor_Homepage" transform="translate(-369.000000, -2011.000000)" fill="#F9AD25" fill-rule="nonzero">
            <g id="Content" transform="translate(0.000000, 70.000000)">
                <g id="Popular-Adventures" transform="translate(135.000000, 1626.000000)">
                    <g id="card-1" filter="url(#filter-1)" transform="translate(0.000000, 76.000000)">
                        <g id="rating" transform="translate(187.000000, 243.000000)">
                            <g id="star_icon" transform="translate(56.000000, 0.000000)">
                                <path d="M11.7291462,5.47213382 C11.9748142,5.22225422 12.061544,4.85552265 11.9555498,4.51505927 C11.8495291,4.17459589 11.5727782,3.93113126 11.2332788,3.87967326 L8.26464619,3.4295471 C8.20637588,3.42072652 8.15600213,3.38254087 8.12992756,3.32740532 L6.80232369,0.52044195 C6.65051349,0.19941703 6.34307731,0 6.00000058,0 C5.65692384,0 5.34948766,0.19941703 5.19767747,0.52044195 L3.8700736,3.32743297 C3.84397252,3.38254087 3.79362528,3.42072652 3.73532847,3.42957475 L0.766748864,3.87967326 C0.427249437,3.93113126 0.150525075,4.17459589 0.0444778767,4.51505927 C-0.0615693219,4.85552265 0.025186932,5.22225422 0.270881491,5.47213382 L2.41898648,7.65706648 C2.46114567,7.6999804 2.48041012,7.76177977 2.47044666,7.82236251 L1.9633439,10.9075198 C1.90536508,11.2603707 2.04172662,11.6102354 2.31927243,11.8206574 C2.59681825,12.0311347 2.95794049,12.0583154 3.26156088,11.891775 L5.91674213,10.4351625 C5.96889128,10.406544 6.03113637,10.406544 6.08331202,10.4351625 L8.73851976,11.891775 C8.87058854,11.9642199 9.01349522,12.0000276 9.15571294,12 C9.34040784,12 9.5239368,11.9396108 9.68072872,11.8206297 C9.95827454,11.6101801 10.0946626,11.2602878 10.0366572,10.9074922 L9.52955449,7.82233486 C9.51961753,7.76175212 9.53885548,7.69995275 9.58101468,7.65703883 L11.7291462,5.47213382 Z M8.61582096,7.80592995 L9.08463154,10.6573073 C9.10031001,10.7527297 9.04384304,10.8071363 9.01883099,10.8260726 C8.99379444,10.8449833 8.92672001,10.8842613 8.84460405,10.8391823 L6.38989547,9.49296973 C6.26939178,9.42691002 6.13720272,9.39384183 6.00498917,9.39384183 C5.87277562,9.39384183 5.74056207,9.42691002 5.62008287,9.49294417 L3.16539879,10.8391312 C3.08323384,10.8841847 3.01618391,10.8449577 2.99117186,10.8260215 C2.96615981,10.8070852 2.90966834,10.7526786 2.9253713,10.6572562 L3.39418189,7.80592995 C3.44021288,7.52597477 3.35131108,7.24047416 3.15628569,7.04219281 L1.17038769,5.02286118 C1.1039257,4.95524262 1.11896723,4.87660984 1.12854579,4.84594382 C1.13807536,4.81525225 1.17024071,4.74239491 1.26208221,4.72849298 L4.00647492,4.31248291 C4.27592402,4.271646 4.50877372,4.09521419 4.62930191,3.84045625 L5.8566562,1.24621349 C5.89773868,1.1594031 5.9740732,1.15002441 6.00501367,1.15002441 C6.03590515,1.15002441 6.11223967,1.15937755 6.15334664,1.24621349 L7.38070093,3.84048181 C7.50120463,4.09523974 7.73402983,4.27167155 8.00347893,4.31250847 L10.7479206,4.72851853 C10.8397621,4.74242046 10.871903,4.81527781 10.8814571,4.84596938 C10.8910111,4.87666095 10.9060771,4.95531928 10.8395907,5.02288674 L8.85369266,7.04221836 C8.65869176,7.24047416 8.56978997,7.52597477 8.61582096,7.80592995 Z"></path>
                            </g>
                        </g>
                    </g>
                </g>
            </g>
        </g>
    </g>
</svg>