<svg xmlns="http://www.w3.org/2000/svg" xmlns:xlink="http://www.w3.org/1999/xlink" width="24.27329195857817" height="14" version="1.1" style=""><rect id="backgroundrect" width="100%" height="100%" x="0" y="0" fill="none" stroke="none" class="" style=""/>
    <!-- Generator: sketchtool 52.4 (67378) - http://www.bohemiancoding.com/sketch -->
    <title>3C937023-9C66-4C47-AC32-71E097203ED3</title>
    <desc>Created with sketchtool.</desc>
    
<g class="currentLayer" style=""><title>Layer 1</title><g id="Page-1" stroke="none" stroke-width="1" fill="none" fill-rule="evenodd" class="">
        <g id="Visitor_Homepage" fill="#999999" fill-rule="nonzero">
            <g id="Content">
                <g id="Top-of-This-Week">
                    <g id="arrow_left_icon">
                        <path d="M399.1956308192737,-2738.0318042263616 L404.5525765692737,-2743.2985856363616 C404.6628666292736,-2743.4070193663615 404.8361795792737,-2743.4844720363617 405.00949252927353,-2743.4844720363617 C405.1828054792736,-2743.4844720363617 405.3561184392736,-2743.4070193663615 405.4664084892736,-2743.2985856363616 L410.8233542492735,-2738.0318042263616 C411.07544580927356,-2737.783955686362 411.07544580927356,-2737.3812018163617 410.8233542492735,-2737.1333532763615 C410.6973084592737,-2737.0094290063616 410.5397512392735,-2736.947466876362 410.3664382892737,-2736.947466876362 C410.1931253292737,-2736.947466876362 410.0355681092735,-2737.0094290063616 409.9095223192735,-2737.1333532763615 L405.6554771692736,-2741.315797337362 L405.6554771692736,-2726.119583936362 C405.6554771692736,-2725.7633016363616 405.3718741592736,-2725.4844720363617 405.00949252927353,-2725.4844720363617 C404.6471109092736,-2725.4844720363617 404.3635078992736,-2725.7633016363616 404.3635078992736,-2726.119583936362 L404.3635078992736,-2741.315797337362 L400.10946271927355,-2737.1333532763615 C399.85737121927355,-2736.885504736362 399.44772241927353,-2736.885504736362 399.1956308192737,-2737.1333532763615 C398.9435392192736,-2737.3812018163617 398.95929501927367,-2737.783955686362 399.1956308192737,-2738.0318042263616 z" id="arrow_icon" transform="rotate(90 -1161.987548828125,-1560.4843750000002) "/>
                    </g>
                </g>
            </g>
        </g>
    </g></g></svg>