<?xml version="1.0" encoding="UTF-8"?>
<svg width="30px" height="30px" viewBox="0 0 30 30" version="1.1" xmlns="http://www.w3.org/2000/svg" xmlns:xlink="http://www.w3.org/1999/xlink">
    <!-- Generator: sketchtool 52.3 (67297) - http://www.bohemiancoding.com/sketch -->
    <title>AD60D188-EB82-4CA0-AA00-45669F0A072E</title>
    <desc>Created with sketchtool.</desc>
    <g id="Page-1" stroke="none" stroke-width="1" fill="none" fill-rule="evenodd">
        <g id="Visitor_Homepage" transform="translate(-1230.000000, -3193.000000)">
            <g id="Footer" transform="translate(135.000000, 3193.000000)">
                <g id="Social-Icons" transform="translate(1050.000000, 0.000000)">
                    <g id="twitter_icon" transform="translate(45.000000, 0.000000)">
                        <circle id="Oval-3" stroke="#DDDDDD" fill="#FFFFFF" cx="15" cy="15" r="14.5"></circle>
                        <path d="M22,10.4197888 C21.4847214,10.6607211 20.9318349,10.8241186 20.3509254,10.8970669 C20.9440734,10.5222593 21.3981134,9.92776176 21.6133066,9.22154856 C21.05692,9.56864453 20.442772,9.82068076 19.7883853,9.95730801 C19.2643681,9.36742108 18.5190041,9 17.6922707,9 C16.1061963,9 14.8201843,10.3570272 14.8201843,12.0297695 C14.8201843,12.2670085 14.8455537,12.4987196 14.8945537,12.7202923 C12.5080074,12.5938035 10.391785,11.3872594 8.97542643,9.55387141 C8.72784106,10.000686 8.58699442,10.5213178 8.58699442,11.0770721 C8.58699442,12.1285467 9.09440375,13.0563084 9.86426775,13.5991 C9.39359705,13.5824923 8.95092639,13.4458651 8.56338654,13.2187645 L8.56338654,13.2566146 C8.56338654,14.7244161 9.55370515,15.9494266 10.8668249,16.2282331 C10.6262396,16.2965467 10.3725464,16.3343968 10.1100917,16.3343968 C9.92463713,16.3343968 9.74529043,16.3150131 9.56944374,16.2780803 C9.93511427,17.4827898 10.995433,18.3588457 12.2517063,18.3828641 C11.269257,19.195241 10.0304837,19.6780469 8.68499458,19.6780469 C8.45317068,19.6780469 8.2248239,19.6632738 8,19.6365035 C9.2711426,20.4978104 10.7802398,21 12.4021837,21 C17.6853165,21 20.5731643,16.3824094 20.5731643,12.3778069 L20.5635336,11.9854743 C21.1277894,11.5607953 21.6159373,11.0272249 22,10.4197888 Z" id="twitter" fill="#999999" fill-rule="nonzero"></path>
                    </g>
                </g>
            </g>
        </g>
    </g>
</svg>