<?xml version="1.0" encoding="UTF-8"?>
<svg width="16px" height="15px" viewBox="0 0 16 15" version="1.1" xmlns="http://www.w3.org/2000/svg" xmlns:xlink="http://www.w3.org/1999/xlink">
    <!-- Generator: sketchtool 52.3 (67297) - http://www.bohemiancoding.com/sketch -->
    <title>D53DB71C-2BCE-4E85-9E91-399A0647D7F5</title>
    <desc>Created with sketchtool.</desc>
    <g id="Page-1" stroke="none" stroke-width="1" fill="none" fill-rule="evenodd">
        <g id="Visitor_Homepage" transform="translate(-795.000000, -321.000000)" fill="#999999" fill-rule="nonzero">
            <g id="Content" transform="translate(0.000000, 70.000000)">
                <g id="Search" transform="translate(135.000000, 228.000000)">
                    <g id="Guests" transform="translate(660.000000, 20.000000)">
                        <g id="user_icon" transform="translate(0.000000, 3.000000)">
                            <path d="M7.96567376,8.40777881 C10.3278298,8.40777881 12.243773,6.52474907 12.243773,4.2032342 C12.243773,1.88171933 10.3278014,0.011570632 7.96567376,0.011570632 C5.6035461,0.011570632 3.68757447,1.89460037 3.68757447,4.2032342 C3.68757447,6.51186803 5.60351773,8.40777881 7.96567376,8.40777881 Z M7.96567376,1.10785316 C9.69790071,1.10785316 11.1152057,2.50076208 11.1152057,4.2032342 C11.1152057,5.90570632 9.69790071,7.29858736 7.96567376,7.29858736 C6.23344681,7.29858736 4.81614184,5.90567844 4.81614184,4.20320632 C4.81614184,2.5007342 6.23341844,1.10785316 7.96567376,1.10785316 Z" id="Shape"></path>
                            <path d="M0.564283688,14.9725372 L15.4195461,14.9725372 C15.7344965,14.9725372 15.9838298,14.7274907 15.9838298,14.4179554 C15.9838298,11.5160409 13.5823262,9.14291822 10.6165106,9.14291822 L5.36731915,9.14291822 C2.4146383,9.14291822 0,11.503132 0,14.4179554 C0,14.7274907 0.249333333,14.9725372 0.564283688,14.9725372 Z M5.36731915,10.2520818 L10.6165106,10.2520818 C12.7686809,10.2520818 14.5402837,11.8255762 14.8158865,13.8633457 L1.16794326,13.8633457 C1.44351773,11.8384851 3.21514894,10.2520818 5.36731915,10.2520818 Z" id="Shape"></path>
                        </g>
                    </g>
                </g>
            </g>
        </g>
    </g>
</svg>